# xmcd CD database file
#
# Track frame offsets:
#	150
#	30873
#	48328
#	74225
#	104211
#	156621
#	181806
#	199660
#
# Disc length: 2827 seconds
#
# Revision: 1
# Processed by: cddbd v1.5.2PL0 Copyright (c) Steve Scherf et al.
# Submitted via: CDex 2.21
#
DISCID=730b0908
DTITLE=John McLaghlin and Jonas Hellborg - HAMBURG 1987 DISC-1
DYEAR=1900
DGENRE=Jazz
TTITLE0=Are You The One  Are You The One
TTITLE1=Electric Dreams
TTITLE2=Follow Your Heart
TTITLE3=Work Song
TTITLE4=Trilogy
TTITLE5=Thelonius Melodius
TTITLE6=Guardian Angel
TTITLE7=You Know, You Know
EXTD=
EXTT0=
EXTT1=
EXTT2=
EXTT3=
EXTT4=
EXTT5=
EXTT6=
EXTT7=
PLAYORDER=
